<svg width="16" height="18" viewBox="0 0 16 18" fill="none" xmlns="http://www.w3.org/2000/svg">
<path d="M14.75 2.25H13.0625V0.5625C13.0625 0.252 12.8105 0 12.5 0H2.375C1.44462 0 0.6875 0.757125 0.6875 1.6875V15.75C0.6875 16.9909 1.69662 18 2.9375 18H14.75C15.0605 18 15.3125 17.748 15.3125 17.4375V2.8125C15.3125 2.502 15.0605 2.25 14.75 2.25ZM8.4185 15.5632C8.31162 15.6814 8.15975 15.75 8 15.75C7.84025 15.75 7.68837 15.6814 7.5815 15.5632C7.2215 15.1616 4.0625 11.583 4.0625 9.5625C4.0625 7.39125 5.82875 5.625 8 5.625C10.1713 5.625 11.9375 7.39125 11.9375 9.5625C11.9375 11.583 8.7785 15.1616 8.4185 15.5632ZM11.9375 2.25H2.375C2.0645 2.25 1.8125 1.998 1.8125 1.6875C1.8125 1.377 2.0645 1.125 2.375 1.125H11.9375V2.25Z" fill="#FF4975"/>
</svg>
